<?xml version="1.0" encoding="UTF-8"?>
<svg version="1.1" xmlns="http://www.w3.org/2000/svg" width="500" height="500">
<path d="M0 0 C0.66 0.33 1.32 0.66 2 1 C2 1.66 2 2.32 2 3 C2.66 3 3.32 3 4 3 C4 3.66 4 4.32 4 5 C4.87398437 5.38671875 4.87398437 5.38671875 5.765625 5.78125 C8.1802903 7.09834017 9.81740177 8.55088384 11.75 10.5 C12.36359375 11.1084375 12.9771875 11.716875 13.609375 12.34375 C15 14 15 14 15 16 C16.32 16.66 17.64 17.32 19 18 C19 18.66 19 19.32 19 20 C19.66 20 20.32 20 21 20 C21 20.66 21 21.32 21 22 C21.87398437 22.38671875 21.87398437 22.38671875 22.765625 22.78125 C25.1802903 24.09834017 26.81740177 25.55088384 28.75 27.5 C29.36359375 28.1084375 29.9771875 28.716875 30.609375 29.34375 C32 31 32 31 32 33 C32.66 33 33.32 33 34 33 C34 33.66 34 34.32 34 35 C34.556875 35.226875 35.11375 35.45375 35.6875 35.6875 C38.66159588 37.37550036 40.72008865 39.46676517 43 42 C43 42.66 43 43.32 43 44 C43.66 44 44.32 44 45 44 C45 44.66 45 45.32 45 46 C45.66 46 46.32 46 47 46 C47 46.66 47 47.32 47 48 C47.66 48 48.32 48 49 48 C49 48.66 49 49.32 49 50 C49.556875 50.226875 50.11375 50.45375 50.6875 50.6875 C53.66159588 52.37550036 55.72008865 54.46676517 58 57 C58 57.66 58 58.32 58 59 C58.66 59 59.32 59 60 59 C60 59.66 60 60.32 60 61 C60.87398437 61.38671875 60.87398437 61.38671875 61.765625 61.78125 C64.1802903 63.09834017 65.81740177 64.55088384 67.75 66.5 C68.36359375 67.1084375 68.9771875 67.716875 69.609375 68.34375 C71 70 71 70 71 72 C71.66 72 72.32 72 73 72 C73 72.66 73 73.32 73 74 C73.66 74 74.32 74 75 74 C75 74.66 75 75.32 75 76 C75.66 76 76.32 76 77 76 C77 76.66 77 77.32 77 78 C77.87398437 78.38671875 77.87398437 78.38671875 78.765625 78.78125 C81.1802903 80.09834017 82.81740177 81.55088384 84.75 83.5 C85.36359375 84.1084375 85.9771875 84.716875 86.609375 85.34375 C88 87 88 87 88 89 C88.66 89 89.32 89 90 89 C90 89.66 90 90.32 90 91 C90.556875 91.226875 91.11375 91.45375 91.6875 91.6875 C94.66159588 93.37550036 96.72008865 95.46676517 99 98 C99 98.66 99 99.32 99 100 C99.66 100 100.32 100 101 100 C101 100.66 101 101.32 101 102 C101.66 102 102.32 102 103 102 C103 102.66 103 103.32 103 104 C103.58265625 104.2578125 104.1653125 104.515625 104.765625 104.78125 C107.1802903 106.09834017 108.81740177 107.55088384 110.75 109.5 C111.36359375 110.1084375 111.9771875 110.716875 112.609375 111.34375 C114 113 114 113 114 115 C114.66 115 115.32 115 116 115 C116 115.66 116 116.32 116 117 C116.66 117 117.32 117 118 117 C118 117.66 118 118.32 118 119 C118.5775 119.2475 119.155 119.495 119.75 119.75 C122.3002997 121.16683317 124.01785701 122.87627537 126 125 C128.56490126 123.9007566 130.12843192 122.87156808 132.125 120.875 C132.74375 120.25625 133.3625 119.6375 134 119 C134.66 119 135.32 119 136 119 C136 118.34 136 117.68 136 117 C136.66 117 137.32 117 138 117 C138 116.34 138 115.68 138 115 C138.66 115 139.32 115 140 115 C140.35578125 114.15695312 140.35578125 114.15695312 140.71875 113.296875 C142.28947697 110.48105958 144.21471464 108.52044584 146.5 106.25 C147.2940625 105.45078125 148.088125 104.6515625 148.90625 103.828125 C151 102 151 102 153 102 C153 101.34 153 100.68 153 100 C153.66 100 154.32 100 155 100 C155.3403125 99.1646875 155.3403125 99.1646875 155.6875 98.3125 C157.37550036 95.33840412 159.46676517 93.27991135 162 91 C162.66 91 163.32 91 164 91 C164 90.34 164 89.68 164 89 C164.66 89 165.32 89 166 89 C166.38671875 88.12601563 166.38671875 88.12601563 166.78125 87.234375 C168.09834017 84.8197097 169.55088384 83.18259823 171.5 81.25 C172.1084375 80.63640625 172.716875 80.0228125 173.34375 79.390625 C175 78 175 78 177 78 C177.99 76.02 177.99 76.02 179 74 C179.66 74 180.32 74 181 74 C181 73.34 181 72.68 181 72 C181.66 72 182.32 72 183 72 C183.38671875 71.12601563 183.38671875 71.12601563 183.78125 70.234375 C185.09834017 67.8197097 186.55088384 66.18259823 188.5 64.25 C189.1084375 63.63640625 189.716875 63.0228125 190.34375 62.390625 C192 61 192 61 194 61 C194 60.34 194 59.68 194 59 C194.66 59 195.32 59 196 59 C196.226875 58.443125 196.45375 57.88625 196.6875 57.3125 C198.37550036 54.33840412 200.46676517 52.27991135 203 50 C203.66 50 204.32 50 205 50 C205 49.34 205 48.68 205 48 C205.66 48 206.32 48 207 48 C207 47.34 207 46.68 207 46 C207.66 46 208.32 46 209 46 C209 45.34 209 44.68 209 44 C209.66 44 210.32 44 211 44 C211.226875 43.443125 211.45375 42.88625 211.6875 42.3125 C213.37550036 39.33840412 215.46676517 37.27991135 218 35 C218.66 35 219.32 35 220 35 C220 34.34 220 33.68 220 33 C220.66 33 221.32 33 222 33 C222.38671875 32.12601563 222.38671875 32.12601563 222.78125 31.234375 C224.09834017 28.8197097 225.55088384 27.18259823 227.5 25.25 C228.1084375 24.63640625 228.716875 24.0228125 229.34375 23.390625 C231 22 231 22 233 22 C233 21.34 233 20.68 233 20 C233.66 20 234.32 20 235 20 C235.66 18.68 236.32 17.36 237 16 C237.66 16 238.32 16 239 16 C239.38671875 15.12601563 239.38671875 15.12601563 239.78125 14.234375 C241.09834017 11.8197097 242.55088384 10.18259823 244.5 8.25 C245.1084375 7.63640625 245.716875 7.0228125 246.34375 6.390625 C248 5 248 5 250 5 C250 4.34 250 3.68 250 3 C250.66 3 251.32 3 252 3 C252 2.34 252 1.68 252 1 C253.269553 0.35165346 254.54069706 -0.29357815 255.8125 -0.9375 C256.52019531 -1.29714844 257.22789062 -1.65679687 257.95703125 -2.02734375 C264.28437195 -5.03978703 270.49966484 -4.79062305 277.0625 -2.5625 C283.71288235 0.35287822 288.17823521 5.50828415 291.5 11.875 C292.84316526 20.26978285 292.80216945 27.72317498 288 35 C286.07709091 37.18384665 284.06983715 39.18066281 281.94140625 41.1640625 C279.80289321 43.10773469 279.80289321 43.10773469 277.5 46.0625 C274.85835309 49.16643512 272.00161082 51.64788333 268.90625 54.28125 C266.79047716 56.10720529 266.79047716 56.10720529 264.5 59 C261.86966984 62.15639619 259.02478739 64.62816595 255.90625 67.28125 C253.79047716 69.10720529 253.79047716 69.10720529 251.5 72 C248.86966984 75.15639619 246.02478739 77.62816595 242.90625 80.28125 C240.79047716 82.10720529 240.79047716 82.10720529 238.5 85 C235.86966984 88.15639619 233.02478739 90.62816595 229.90625 93.28125 C227.79047716 95.10720529 227.79047716 95.10720529 225.5 98 C222.86966984 101.15639619 220.02478739 103.62816595 216.90625 106.28125 C214.79047716 108.10720529 214.79047716 108.10720529 212.5 111 C209.92170117 114.0939586 207.170819 116.53639587 204.1171875 119.140625 C200.57230158 122.25384585 197.30451393 125.63612355 194 129 C192.33412387 130.66745683 190.66734893 132.33401588 189 134 C188.20271484 134.79728516 187.40542969 135.59457031 186.58398438 136.41601562 C180.38932292 142.61067708 174.19466146 148.80533854 168 155 C167.11634766 155.88437744 166.23269531 156.76875488 165.32226562 157.67993164 C163.86620067 159.1346189 162.40533244 160.58453118 160.9375 162.02734375 C157.97194909 164.95104212 155.13644571 167.83285401 152.5 171.0625 C145.77237845 178.96745532 138.49793139 184.75390408 128 186 C121.62509809 186.01050231 116.1100454 184.86862635 111.2890625 180.421875 C110.086503 179.21406415 108.89777739 177.99233537 107.72265625 176.7578125 C105.85658848 174.7888118 105.85658848 174.7888118 102.9375 172.5 C100.65616338 170.55843692 98.94454783 168.83788587 97.0625 166.5625 C95.04819 164.12854209 93.0034519 162.06756764 90.5625 160.0625 C87.20486646 157.29651995 84.49632886 154.18540544 81.6875 150.875 C79.36339073 148.29265636 76.6706226 146.21604854 74 144 C72.48579301 142.29145629 71.04064549 140.53594995 69.58984375 138.7734375 C67.38839693 136.31776955 64.90361532 134.30263981 62.3203125 132.26171875 C61.88460937 131.84535156 61.44890625 131.42898438 61 131 C61 130.34 61 129.68 61 129 C60.34 129 59.68 129 59 129 C57.5546875 127.49609375 57.5546875 127.49609375 55.875 125.4375 C53.40985239 122.52739836 50.9163977 119.95680973 48 117.5 C44.50535661 114.54506988 41.60417101 111.32714988 38.65234375 107.83984375 C36.34295747 105.26839945 33.65669321 103.20449011 31 101 C29.43954284 99.24846645 27.94859053 97.4509608 26.45703125 95.640625 C24.53001057 93.47078938 22.26704662 91.80030173 20 90 C20 89.34 20 88.68 20 88 C19.34 88 18.68 88 18 88 C16.73828125 86.6796875 16.73828125 86.6796875 15.3125 84.875 C12.59639299 81.56872653 9.67219481 78.90985088 6.3203125 76.26171875 C5.88460937 75.84535156 5.44890625 75.42898437 5 75 C5 74.34 5 73.68 5 73 C4.01 72.67 3.02 72.34 2 72 C0.28125 70.22265625 0.28125 70.22265625 -1.5 68.0625 C-3.62876021 65.49024808 -5.18391145 63.87739237 -8 62 C-8 61.34 -8 60.68 -8 60 C-8.556875 59.79375 -9.11375 59.5875 -9.6875 59.375 C-11.94696811 58.03153247 -12.9998656 56.94842298 -14.625 54.9375 C-16.67119397 51.99175287 -16.67119397 51.99175287 -19 51 C-19 50.34 -19 49.68 -19 49 C-20.485 48.505 -20.485 48.505 -22 48 C-23.578125 46.43359375 -23.578125 46.43359375 -25.25 44.4375 C-27.11573487 42.22317772 -28.97437161 40.02769104 -30.94140625 37.90234375 C-36.88576406 31.46158862 -38.45548643 26.44083104 -38.2421875 17.671875 C-37.58109102 10.37848801 -33.41453257 4.68311354 -28 0 C-18.17710879 -5.79631762 -9.80833448 -5.1633727 0 0 Z " fill="#43D2E8" transform="translate(123,159)"/>
<path d="M0 0 C0.66 0.33 1.32 0.66 2 1 C1.04287109 1.92232422 1.04287109 1.92232422 0.06640625 2.86328125 C-0.75988281 3.67152344 -1.58617187 4.47976562 -2.4375 5.3125 C-3.26121094 6.11300781 -4.08492188 6.91351563 -4.93359375 7.73828125 C-7.19403477 9.90470808 -7.19403477 9.90470808 -8 13 C-8.66 13 -9.32 13 -10 13 C-10.38478516 13.83144531 -10.38478516 13.83144531 -10.77734375 14.6796875 C-12.17550971 17.33307593 -13.81852482 19.68561927 -15.5625 22.125 C-17.96731666 25.45091748 -17.96731666 25.45091748 -20 29 C-21.546875 29.0928125 -21.546875 29.0928125 -23.125 29.1875 C-28.35895376 30.28494192 -30.60384111 33.04641685 -34 37 C-34 34 -34 34 -31.8828125 31.51953125 C-30.97273438 30.62621094 -30.06265625 29.73289062 -29.125 28.8125 C-28.22007812 27.91144531 -27.31515625 27.01039063 -26.3828125 26.08203125 C-24 24 -24 24 -22 24 C-22 23.34 -22 22.68 -22 22 C-21.34 22 -20.68 22 -20 22 C-19.773125 21.443125 -19.54625 20.88625 -19.3125 20.3125 C-17.62449964 17.33840412 -15.53323483 15.27991135 -13 13 C-12.34 13 -11.68 13 -11 13 C-11 12.34 -11 11.68 -11 11 C-10.34 11 -9.68 11 -9 11 C-8.74476563 10.41734375 -8.48953125 9.8346875 -8.2265625 9.234375 C-6.88258913 6.78611777 -5.38189704 5.18256752 -3.375 3.25 C-2.74335938 2.63640625 -2.11171875 2.0228125 -1.4609375 1.390625 C-0.73777344 0.70226562 -0.73777344 0.70226562 0 0 Z " fill="#94E5EF" transform="translate(298,237)"/>
<path d="M0 0 C2 3 2 3 2 6 C3.32 6 4.64 6 6 6 C6.33 6.66 6.66 7.32 7 8 C10.9884163 9.2081699 14.63131255 8.969777 18.75 8.625 C19.89984375 8.53476562 21.0496875 8.44453125 22.234375 8.3515625 C24.90526579 8.29883191 24.90526579 8.29883191 26 7 C27.99958364 6.95919217 30.00045254 6.95745644 32 7 C29.44038444 10.83942335 27.43948543 11.49789232 22.98828125 12.4140625 C16.27650408 13.42141475 10.51405114 12.55272027 4.3125 9.8125 C1.06397156 7.26635609 -1.43479397 4.21752646 -4 1 C-2.68 1.33 -1.36 1.66 0 2 C0 1.34 0 0.68 0 0 Z " fill="#8DE1EA" transform="translate(233,332)"/>
<path d="M0 0 C0 0.33 0 0.66 0 1 C-0.70125 1.09796875 -1.4025 1.1959375 -2.125 1.296875 C-9.60426065 2.47567152 -16.86057706 4.02674738 -22 10 C-22.72197162 12.60611077 -22.72197162 12.60611077 -23 15 C-23.66 15 -24.32 15 -25 15 C-27.06141803 23.24567212 -25.68166708 30.83190274 -24 39 C-28.42781247 34.82693839 -29.13292275 30.51303719 -29.3125 24.5625 C-29.12340369 16.78854068 -26.28851608 11.44570691 -21.08203125 5.80078125 C-14.86716308 0.42544499 -7.94165116 -0.51236459 0 0 Z " fill="#AEEBF3" transform="translate(114,155)"/>
<path d="M0 0 C0.66 0.33 1.32 0.66 2 1 C1.34 2.32 0.68 3.64 0 5 C-0.99 5 -1.98 5 -3 5 C-3.0825 5.61875 -3.165 6.2375 -3.25 6.875 C-4.23825442 9.67505419 -5.40359985 9.74113932 -8 11 C-8.68486725 12.32407669 -9.34870203 13.65909241 -10 15 C-13.07807831 18.41084354 -16.06249753 20.69512051 -20 23 C-22.05381065 24.61092731 -24.02050789 26.29671609 -26 28 C-24.44396229 24.18063472 -22.04395069 21.73955562 -19 19 C-18.34 19 -17.68 19 -17 19 C-17 18.34 -17 17.68 -17 17 C-16.34 17 -15.68 17 -15 17 C-14.7421875 16.41734375 -14.484375 15.8346875 -14.21875 15.234375 C-12.90165983 12.8197097 -11.44911616 11.18259823 -9.5 9.25 C-8.58734375 8.32960937 -8.58734375 8.32960937 -7.65625 7.390625 C-6 6 -6 6 -4 6 C-4 5.34 -4 4.68 -4 4 C-3.34 4 -2.68 4 -2 4 C-1.34 2.68 -0.68 1.36 0 0 Z " fill="#A2E8EF" transform="translate(360,175)"/>
<path d="M0 0 C2.3125 -0.3125 2.3125 -0.3125 5 0 C6.5 2.1875 6.5 2.1875 8 5 C8.886875 5.886875 9.77375 6.77375 10.6875 7.6875 C13 10 13 10 13 12 C14.32 12 15.64 12 17 12 C17 13.32 17 14.64 17 16 C18.32 16.33 19.64 16.66 21 17 C21 17.99 21 18.98 21 20 C21.66 20 22.32 20 23 20 C23 20.99 23 21.98 23 23 C22.34 23 21.68 23 21 23 C19.44921875 21.390625 19.44921875 21.390625 17.6875 19.25 C15.69441586 16.89939355 13.91352052 14.93081642 11.5 13 C6.95333281 9.36266625 3.22251369 4.83377054 0 0 Z " fill="#88DFE8" transform="translate(206,310)"/>
<path d="M0 0 C3.15835107 1.39750048 5.32272825 3.05198234 7.75 5.5 C8.67039063 6.41265625 8.67039063 6.41265625 9.609375 7.34375 C11 9 11 9 11 11 C11.66 11 12.32 11 13 11 C13 11.66 13 12.32 13 13 C13.556875 13.226875 14.11375 13.45375 14.6875 13.6875 C17.66159588 15.37550036 19.72008865 17.46676517 22 20 C22 20.66 22 21.32 22 22 C22.66 22 23.32 22 24 22 C24 22.66 24 23.32 24 24 C23.01 24 22.02 24 21 24 C20.54625 23.236875 20.0925 22.47375 19.625 21.6875 C17.73862076 18.56771895 16.12495073 17.78568613 13 16 C11.29319053 14.37446717 9.62339805 12.70884005 8 11 C7.46375 10.505 6.9275 10.01 6.375 9.5 C4.5591935 7.51912018 3.33684054 5.32494007 2 3 C1.34 2.01 0.68 1.02 0 0 Z " fill="#A1E6EF" transform="translate(144,181)"/>
<path d="M0 0 C-4.62 4.62 -9.24 9.24 -14 14 C-14.66 12.68 -15.32 11.36 -16 10 C-15.125 7.75 -15.125 7.75 -14 6 C-12.02 6 -10.04 6 -8 6 C-8 4.35 -8 2.7 -8 1 C-4.59449725 -1.06762667 -4.18836538 -1.04709135 0 0 Z " fill="#79DCE6" transform="translate(305,300)"/>
<path d="M0 0 C3.81936528 1.55603771 6.26044438 3.95604931 9 7 C9 7.66 9 8.32 9 9 C9.66 9 10.32 9 11 9 C11 9.66 11 10.32 11 11 C11.66 11 12.32 11 13 11 C13 11.66 13 12.32 13 13 C13.58265625 13.25523437 14.1653125 13.51046875 14.765625 13.7734375 C17.21388223 15.11741087 18.81743248 16.61810296 20.75 18.625 C21.36359375 19.25664062 21.9771875 19.88828125 22.609375 20.5390625 C23.06828125 21.02117187 23.5271875 21.50328125 24 22 C23.67 22.66 23.34 23.32 23 24 C22.48050781 23.45730469 21.96101563 22.91460937 21.42578125 22.35546875 C17.81903995 18.65539218 14.57718704 15.47415516 10 13 C6.39569067 10.46060025 4.90188038 9.25172178 4 5 C2.71937515 3.2925002 1.3927289 1.61736259 0 0 Z " fill="#ACEBF2" transform="translate(213,250)"/>
<path d="M0 0 C2.31 0.33 4.62 0.66 7 1 C7 3 7 3 5.3203125 4.69140625 C4.59585937 5.30886719 3.87140625 5.92632812 3.125 6.5625 C2.40570313 7.18253906 1.68640625 7.80257813 0.9453125 8.44140625 C-1 10 -1 10 -3 11 C-2.67 8.03 -2.34 5.06 -2 2 C-1.34 2 -0.68 2 0 2 C0 1.34 0 0.68 0 0 Z " fill="#5AD4EB" transform="translate(339,257)"/>
<path d="M0 0 C4.35522853 0.50642192 7.44239635 1.38411497 11 4 C11 4.66 11 5.32 11 6 C11.66 6 12.32 6 13 6 C13 6.66 13 7.32 13 8 C13.58265625 8.25523437 14.1653125 8.51046875 14.765625 8.7734375 C17.21388223 10.11741087 18.81743248 11.61810296 20.75 13.625 C21.36359375 14.25664062 21.9771875 14.88828125 22.609375 15.5390625 C23.06828125 16.02117187 23.5271875 16.50328125 24 17 C23.67 17.66 23.34 18.32 23 19 C22.41992188 18.38511719 21.83984375 17.77023438 21.2421875 17.13671875 C15.35450423 11.00387253 15.35450423 11.00387253 8 7 C8 6.34 8 5.68 8 5 C7.34 5 6.68 5 6 5 C6 4.34 6 3.68 6 3 C4.02 2.34 2.04 1.68 0 1 C0 0.67 0 0.34 0 0 Z " fill="#B6EDF4" transform="translate(114,156)"/>
<path d="M0 0 C2.53410943 2.53410943 2.32552882 3.5450988 2.375 7.0625 C2.28644718 12.66346584 1.02129904 17.25854531 -2 22 C-2.66 22.33 -3.32 22.66 -4 23 C-4.25 17.375 -4.25 17.375 -2 14 C-0.99740493 10.99221479 -0.69685358 8.46179353 -0.4375 5.3125 C-0.31181641 3.82169922 -0.31181641 3.82169922 -0.18359375 2.30078125 C-0.12300781 1.54152344 -0.06242187 0.78226563 0 0 Z " fill="#9DE6EE" transform="translate(413,172)"/>
<path d="M0 0 C3.18609925 0.35401103 4.79066678 0.83027036 7.3125 2.875 C9 5 9 5 9 8 C9.61875 8.309375 10.2375 8.61875 10.875 8.9375 C12.25 9.625 13.625 10.3125 15 11 C14.67 12.32 14.34 13.64 14 15 C8.73148613 10.88798917 3.03218303 6.06436605 0 0 Z " fill="#8EE0E9" transform="translate(186,290)"/>
<path d="M0 0 C0 0.33 0 0.66 0 1 C-1.43279297 0.91298828 -1.43279297 0.91298828 -2.89453125 0.82421875 C-11.84394414 0.51192618 -18.06286295 1.37962916 -26 6 C-26.33 5.34 -26.66 4.68 -27 4 C-26.34 4 -25.68 4 -25 4 C-25 3.34 -25 2.68 -25 2 C-16.02933693 -1.29955423 -9.26824503 -3.61687611 0 0 Z " fill="#71D7E3" transform="translate(400,158)"/>
<path d="M0 0 C0.99 0.66 1.98 1.32 3 2 C3 4 3 4 1.3203125 5.69140625 C0.59585937 6.30886719 -0.12859375 6.92632812 -0.875 7.5625 C-1.59429687 8.18253906 -2.31359375 8.80257813 -3.0546875 9.44140625 C-5 11 -5 11 -7 12 C-7.33 9.69 -7.66 7.38 -8 5 C-7.34 4.67 -6.68 4.34 -6 4 C-6 4.66 -6 5.32 -6 6 C-5.54625 5.505 -5.0925 5.01 -4.625 4.5 C-3 3 -3 3 -1 3 C-0.67 2.01 -0.34 1.02 0 0 Z " fill="#71DCEB" transform="translate(330,269)"/>
<path d="M0 0 C0.99 0.33 1.98 0.66 3 1 C3.33 1.99 3.66 2.98 4 4 C1.6875 7.1875 1.6875 7.1875 -1 10 C-1.66 10 -2.32 10 -3 10 C-3.33 7.69 -3.66 5.38 -4 3 C-2.1875 1.4375 -2.1875 1.4375 0 0 Z " fill="#6ADAED" transform="translate(373,224)"/>
<path d="M0 0 C2.64 0 5.28 0 8 0 C7.34 1.65 6.68 3.3 6 5 C6.928125 5.4640625 6.928125 5.4640625 7.875 5.9375 C9.25 6.625 10.625 7.3125 12 8 C11.67 9.32 11.34 10.64 11 12 C6.30435607 8.68542782 3.27530896 4.63720719 0 0 Z " fill="#7CDFEA" transform="translate(148,252)"/>
<path d="M0 0 C0.66 0 1.32 0 2 0 C2 0.99 2 1.98 2 3 C1.34 3 0.68 3 0 3 C-0.23460937 3.59296875 -0.46921875 4.1859375 -0.7109375 4.796875 C-2.29895425 7.51094 -3.97602884 8.58493241 -6.625 10.25 C-7.44226563 10.77078125 -8.25953125 11.2915625 -9.1015625 11.828125 C-10.04128906 12.40820312 -10.04128906 12.40820312 -11 13 C-9.26142784 9.23309364 -7.09741625 6.78767463 -4 4 C-3.34 4 -2.68 4 -2 4 C-2 3.34 -2 2.68 -2 2 C-1.34 2 -0.68 2 0 2 C0 1.34 0 0.68 0 0 Z " fill="#9DE6EF" transform="translate(330,205)"/>
<path d="M0 0 C3.375 0.25 3.375 0.25 7 1 C8.5 2.8125 8.5 2.8125 9 5 C8.70549668 6.34244429 8.37683609 7.67830282 8 9 C6.66079162 7.88200014 5.32877444 6.75538103 4 5.625 C2.88625 4.68527344 2.88625 4.68527344 1.75 3.7265625 C1.1725 3.15679687 0.595 2.58703125 0 2 C0 1.34 0 0.68 0 0 Z " fill="#7FDDE8" transform="translate(167,271)"/>
<path d="M0 0 C2.65664779 0.15180845 4.45217862 0.52011425 6.48046875 2.296875 C7.875 3.875 7.875 3.875 10 7 C9.67 7.99 9.34 8.98 9 10 C7.2925002 8.71937515 5.62626404 7.38232443 4 6 C4 5.34 4 4.68 4 4 C3.01 3.67 2.02 3.34 1 3 C0.67 2.01 0.34 1.02 0 0 Z " fill="#91E2EB" transform="translate(100,204)"/>
<path d="M0 0 C0.99 0 1.98 0 3 0 C3.25 2.3125 3.25 2.3125 3 5 C1 6.8125 1 6.8125 -1 8 C-1.625 5.125 -1.625 5.125 -2 2 C-1.34 1.34 -0.68 0.68 0 0 Z " fill="#64D7EC" transform="translate(291,306)"/>
<path d="M0 0 C0.66 0 1.32 0 2 0 C2.33 0.66 2.66 1.32 3 2 C3.95132813 2.18369141 3.95132813 2.18369141 4.921875 2.37109375 C7 3 7 3 8.265625 4.84765625 C8.59046875 5.57855469 8.9153125 6.30945313 9.25 7.0625 C9.58515625 7.79597656 9.9203125 8.52945313 10.265625 9.28515625 C10.50796875 9.85105469 10.7503125 10.41695312 11 11 C9 11 9 11 6.375 8.625 C4 6 4 6 4 4 C3.01 3.67 2.02 3.34 1 3 C0.67 2.01 0.34 1.02 0 0 Z " fill="#ADEBF1" transform="translate(124,228)"/>
<path d="M0 0 C0.33 0.66 0.66 1.32 1 2 C-1.64 3.98 -4.28 5.96 -7 8 C-6.25 3.25 -6.25 3.25 -4 1 C-1.875 0.375 -1.875 0.375 0 0 Z " fill="#89E1E9" transform="translate(353,250)"/>
<path d="M0 0 C1.32 0 2.64 0 4 0 C4 0.66 4 1.32 4 2 C2.46875 3.2890625 2.46875 3.2890625 0.5 4.625 C-0.1496875 5.07101562 -0.799375 5.51703125 -1.46875 5.9765625 C-1.9740625 6.31429688 -2.479375 6.65203125 -3 7 C-2.25 2.25 -2.25 2.25 0 0 Z " fill="#88DFE8" transform="translate(286,314)"/>
<path d="M0 0 C4.0369867 1.79421631 6.64480474 3.20551875 9 7 C8.67 7.66 8.34 8.32 8 9 C6 7.625 6 7.625 4 6 C4 5.34 4 4.68 4 4 C2.68 3.34 1.36 2.68 0 2 C0 1.34 0 0.68 0 0 Z " fill="#ACEAEF" transform="translate(111,215)"/>
<path d="M0 0 C2.97 0.495 2.97 0.495 6 1 C4.35830472 3.02054804 2.69088222 5.02043058 1 7 C0.67 7 0.34 7 0 7 C0 4.69 0 2.38 0 0 Z " fill="#79DBEB" transform="translate(402,195)"/>
<path d="M0 0 C-1.65 1.98 -3.3 3.96 -5 6 C-5.66 5.67 -6.32 5.34 -7 5 C-6.625 2.5625 -6.625 2.5625 -6 0 C-3.50907189 -1.24546405 -2.58919267 -0.7767578 0 0 Z " fill="#8BE2EA" transform="translate(321,284)"/>
<path d="M0 0 C1.98 0 3.96 0 6 0 C6 0.66 6 1.32 6 2 C4.03852126 3.38938077 2.03833424 4.7260411 0 6 C0 4.02 0 2.04 0 0 Z " fill="#85DFEF" transform="translate(340,258)"/>
<path d="M0 0 C1.33333333 0.66666667 2.66666667 1.33333333 4 2 C4.721875 2.268125 5.44375 2.53625 6.1875 2.8125 C8 4 8 4 8.75 6.625 C8.87375 7.800625 8.87375 7.800625 9 9 C7 9 7 9 5.2734375 7.28515625 C4.64695312 6.55167969 4.02046875 5.81820312 3.375 5.0625 C2.74335937 4.33160156 2.11171875 3.60070312 1.4609375 2.84765625 C0 1 0 1 0 0 Z " fill="#9AE6ED" transform="translate(91,195)"/>
<path d="M0 0 C1.98 0.99 1.98 0.99 4 2 C4 2.66 4 3.32 4 4 C4.66 4 5.32 4 6 4 C6.33 5.32 6.66 6.64 7 8 C3.17360931 6.54861043 1.84332652 4.59448672 0 1 C0 0.67 0 0.34 0 0 Z " fill="#8CE0E9" transform="translate(138,175)"/>
<path d="M0 0 C0.66 0 1.32 0 2 0 C2 0.66 2 1.32 2 2 C2.66 2 3.32 2 4 2 C4 2.66 4 3.32 4 4 C4.66 4 5.32 4 6 4 C5.67 4.66 5.34 5.32 5 6 C3.02 5.34 1.04 4.68 -1 4 C-0.67 2.68 -0.34 1.36 0 0 Z " fill="#86E1EE" transform="translate(194,231)"/>
<path d="M0 0 C2.38564077 0.57584432 4.66682784 1.22227595 7 2 C7 2.66 7 3.32 7 4 C5.02 4.99 5.02 4.99 3 6 C2.67 5.34 2.34 4.68 2 4 C1.01 3.34 0.02 2.68 -1 2 C-0.67 1.34 -0.34 0.68 0 0 Z " fill="#6ADEEE" transform="translate(395,200)"/>
<path d="M0 0 C1.32 0.33 2.64 0.66 4 1 C4 1.99 4 2.98 4 4 C4.66 4 5.32 4 6 4 C6 4.99 6 5.98 6 7 C4 7 4 7 1.875 5.1875 C0 3 0 3 0 0 Z " fill="#98E3EB" transform="translate(223,326)"/>
<path d="M0 0 C2 1 4 2 6 3 C5.67 4.32 5.34 5.64 5 7 C2.5 5.1875 2.5 5.1875 0 3 C0 2.01 0 1.02 0 0 Z " fill="#8FE1E8" transform="translate(154,257)"/>
<path d="M0 0 C0.66 0 1.32 0 2 0 C2.33 1.32 2.66 2.64 3 4 C4.32 4 5.64 4 7 4 C7 4.99 7 5.98 7 7 C5.1875 6.8125 5.1875 6.8125 3 6 C0 1.71428571 0 1.71428571 0 0 Z " fill="#72D8E4" transform="translate(119,221)"/>
<path d="M0 0 C1.32 0 2.64 0 4 0 C4 0.66 4 1.32 4 2 C2.03852126 3.38938077 0.03833424 4.7260411 -2 6 C-1.125 1.125 -1.125 1.125 0 0 Z " fill="#8BE1E9" transform="translate(381,219)"/>
<path d="M0 0 C1.37562854 1.28965176 2.70766393 2.62689293 4 4 C4 4.66 4 5.32 4 6 C2.02 6.99 2.02 6.99 0 8 C-0.38063221 5.6739143 -0.71269945 3.33944736 -1 1 C-0.67 0.67 -0.34 0.34 0 0 Z " fill="#74DDEF" transform="translate(355,241)"/>
<path d="M0 0 C1.32 0 2.64 0 4 0 C4 0.66 4 1.32 4 2 C2.03852126 3.38938077 0.03833424 4.7260411 -2 6 C-2 4.68 -2 3.36 -2 2 C-1.34 2 -0.68 2 0 2 C0 1.34 0 0.68 0 0 Z " fill="#8FE0EA" transform="translate(269,331)"/>
<path d="M0 0 C0.66 0 1.32 0 2 0 C2 0.66 2 1.32 2 2 C2.66 2.33 3.32 2.66 4 3 C2.68 3.99 1.36 4.98 0 6 C0 5.01 0 4.02 0 3 C-0.66 2.67 -1.32 2.34 -2 2 C-1.34 1.34 -0.68 0.68 0 0 Z " fill="#73DBEF" transform="translate(309,289)"/>
<path d="M0 0 C2.475 0.495 2.475 0.495 5 1 C5.33 2.65 5.66 4.3 6 6 C5.34 6 4.68 6 4 6 C4 5.34 4 4.68 4 4 C3.34 4 2.68 4 2 4 C1.34 2.68 0.68 1.36 0 0 Z " fill="#9EE7EC" transform="translate(180,284)"/>
<path d="M0 0 C0.66 0 1.32 0 2 0 C2 0.66 2 1.32 2 2 C2.66 2 3.32 2 4 2 C4.66 3.65 5.32 5.3 6 7 C3.11562221 5.70700306 1.12780579 4.34058637 -1 2 C-0.67 1.34 -0.34 0.68 0 0 Z " fill="#80DAE7" transform="translate(237,274)"/>
<path d="M0 0 C2.97 0.495 2.97 0.495 6 1 C6 2.65 6 4.3 6 6 C3.97945196 4.35830472 1.97956942 2.69088222 0 1 C0 0.67 0 0.34 0 0 Z " fill="#88E0E9" transform="translate(135,239)"/>
<path d="M0 0 C3.65316671 1.24976756 4.78065836 1.67098753 7 5 C5.35 5 3.7 5 2 5 C2 4.34 2 3.68 2 3 C1.34 2.67 0.68 2.34 0 2 C0 1.34 0 0.68 0 0 Z " fill="#56CBDD" transform="translate(400,159)"/>
</svg>
